<svg xmlns="http://www.w3.org/2000/svg" data-name="Layer 2" viewBox="0 0 100 100" id="clinic"><path fill="#f2f2f2" d="M10.49 25.07V81.41H47.38V25.07zm11.86 49a1 1 0 0 1-1 1H13.76a1 1 0 0 1-1-1V66.48a1 1 0 0 1 1-1h7.59a1 1 0 0 1 1 1zm0-11.38a1 1 0 0 1-1 1H13.76a1 1 0 0 1-1-1V55.1a1 1 0 0 1 1-1h7.59a1 1 0 0 1 1 1zM33.73 74.07a1 1 0 0 1-1 1H25.14a1 1 0 0 1-1-1V66.48a1 1 0 0 1 1-1h7.59a1 1 0 0 1 1 1zm0-11.38a1 1 0 0 1-1 1H25.14a1 1 0 0 1-1-1V55.1a1 1 0 0 1 1-1h7.59a1 1 0 0 1 1 1zm0-12.69a1 1 0 0 1-1 1H25.11a1 1 0 0 1-1-1V45.1h-4.9a1 1 0 0 1-1-1V36.45a1 1 0 0 1 1-1h4.9V30.56a1 1 0 0 1 1-1h7.65a1 1 0 0 1 1 1v4.89h4.9a1 1 0 0 1 1 1V44.1a1 1 0 0 1-1 1h-4.9zM45.11 74.07a1 1 0 0 1-1 1H36.52a1 1 0 0 1-1-1V66.48a1 1 0 0 1 1-1h7.59a1 1 0 0 1 1 1zm0-11.38a1 1 0 0 1-1 1H36.52a1 1 0 0 1-1-1V55.1a1 1 0 0 1 1-1h7.59a1 1 0 0 1 1 1zM53.86 81.41V50a1 1 0 0 1 1-1H84a1 1 0 0 1 1 1V81.41h4.48V38H49.38V81.41z"></path><path fill="#d93838" d="M31.76,36.45V31.56H26.11v4.89a1,1,0,0,1-1,1h-4.9V43.1h4.9a1,1,0,0,1,1,1V49h5.65V44.1a1,1,0,0,1,1-1h4.9V37.45h-4.9A1,1,0,0,1,31.76,36.45Z"></path><rect width="12.58" height="29.62" x="70.44" y="51" fill="#25b5d1"></rect><rect width="12.58" height="29.62" x="55.86" y="51" fill="#25b5d1"></rect><polygon fill="#ccc" points="49.38 36.04 90.51 36.04 92.75 36.04 92.75 31.56 49.38 31.56 49.38 36.04"></polygon><rect width="5.59" height="5.59" x="14.76" y="56.1" fill="#25b5d1"></rect><rect width="5.59" height="5.59" x="26.14" y="56.1" fill="#25b5d1"></rect><rect width="5.59" height="5.59" x="37.52" y="56.1" fill="#25b5d1"></rect><rect width="5.59" height="5.59" x="14.76" y="67.48" fill="#25b5d1"></rect><rect width="5.59" height="5.59" x="26.14" y="67.48" fill="#25b5d1"></rect><rect width="5.59" height="5.59" x="37.52" y="67.48" fill="#25b5d1"></rect><polygon fill="#ccc" points="50.62 23.07 50.62 18.59 7.25 18.59 7.25 23.07 9.49 23.07 48.38 23.07 50.62 23.07"></polygon><path fill="#4d4d4d" d="M39.66,44.1V36.45a1,1,0,0,0-1-1h-4.9V30.56a1,1,0,0,0-1-1H25.11a1,1,0,0,0-1,1v4.89h-4.9a1,1,0,0,0-1,1V44.1a1,1,0,0,0,1,1h4.9V50a1,1,0,0,0,1,1h7.65a1,1,0,0,0,1-1V45.1h4.9A1,1,0,0,0,39.66,44.1Zm-2-1h-4.9a1,1,0,0,0-1,1V49H26.11V44.1a1,1,0,0,0-1-1h-4.9V37.45h4.9a1,1,0,0,0,1-1V31.56h5.65v4.89a1,1,0,0,0,1,1h4.9Z"></path><path fill="#4d4d4d" d="M93.75,29.56H49.38V25.07h2.24a1,1,0,0,0,1-1V17.59a1,1,0,0,0-1-1H6.25a1,1,0,0,0-1,1v6.48a1,1,0,0,0,1,1H8.49V82.41a1,1,0,0,0,1,1h81a1,1,0,0,0,1-1V38h2.24a1,1,0,0,0,1-1V30.56A1,1,0,0,0,93.75,29.56ZM7.25,23.07V18.59H50.62v4.48H7.25Zm3.24,2H47.38V81.41H10.49ZM55.86,80.62V51H68.44V80.62Zm27.17,0H70.44V51H83Zm6.48.79H85V50a1,1,0,0,0-1-1H54.86a1,1,0,0,0-1,1V81.41H49.38V38H89.51ZM92.75,36H49.38V31.56H92.75Z"></path><path fill="#4d4d4d" d="M21.35 54.1H13.76a1 1 0 0 0-1 1v7.59a1 1 0 0 0 1 1h7.59a1 1 0 0 0 1-1V55.1A1 1 0 0 0 21.35 54.1zm-1 7.59H14.76V56.1h5.59zM32.73 54.1H25.14a1 1 0 0 0-1 1v7.59a1 1 0 0 0 1 1h7.59a1 1 0 0 0 1-1V55.1A1 1 0 0 0 32.73 54.1zm-1 7.59H26.14V56.1h5.59zM44.11 54.1H36.52a1 1 0 0 0-1 1v7.59a1 1 0 0 0 1 1h7.59a1 1 0 0 0 1-1V55.1A1 1 0 0 0 44.11 54.1zm-1 7.59H37.52V56.1h5.59zM21.35 65.48H13.76a1 1 0 0 0-1 1v7.59a1 1 0 0 0 1 1h7.59a1 1 0 0 0 1-1V66.48A1 1 0 0 0 21.35 65.48zm-1 7.59H14.76V67.48h5.59zM32.73 65.48H25.14a1 1 0 0 0-1 1v7.59a1 1 0 0 0 1 1h7.59a1 1 0 0 0 1-1V66.48A1 1 0 0 0 32.73 65.48zm-1 7.59H26.14V67.48h5.59zM44.11 65.48H36.52a1 1 0 0 0-1 1v7.59a1 1 0 0 0 1 1h7.59a1 1 0 0 0 1-1V66.48A1 1 0 0 0 44.11 65.48zm-1 7.59H37.52V67.48h5.59z"></path></svg>